<svg id="Clean_Product_Icon" data-name="Clean Product Icon" xmlns="http://www.w3.org/2000/svg" width="48.066" height="48.066" viewBox="0 0 48.066 48.066">
  <g id="Ellipse_1" data-name="Ellipse 1" fill="#f2f2f2" stroke="#c9c9c9" stroke-width="2">
    <circle cx="24.033" cy="24.033" r="24.033" stroke="none"/>
    <circle cx="24.033" cy="24.033" r="23.033" fill="none"/>
  </g>
  <g id="Ellipse_2" data-name="Ellipse 2" transform="translate(2.06 2.061)" fill="#f2f2f2" stroke="#c9c9c9" stroke-width="1">
    <circle cx="21.973" cy="21.973" r="21.973" stroke="none"/>
    <circle cx="21.973" cy="21.973" r="21.473" fill="none"/>
  </g>
  <g id="Group_1492" data-name="Group 1492" transform="translate(9.613 10.156)">
    <g id="Group_1468" data-name="Group 1468" transform="translate(0 0.397)">
      <path id="Path_9765" data-name="Path 9765" d="M31.3,37.626a11.579,11.579,0,0,0-1.286,1.162c-.379.4-.871.748-.608.407a10.7,10.7,0,0,1,1.644-1.672l.058-.051c-.14-.1-.272-.2-.408-.295s-.27-.185-.409-.27a.35.35,0,0,0-.132-.021.058.058,0,0,0-.02.005,1.866,1.866,0,0,0-.791.443,2.731,2.731,0,0,1-1.691.681,4.37,4.37,0,0,1-1.422-.139c.03-.049.054-.093.084-.132a2.12,2.12,0,0,1,1.026-.687,4.537,4.537,0,0,1,1.8-.2,2.384,2.384,0,0,0,.87-.029c.02-.006.041-.009.061-.015a.24.24,0,0,0,.039-.025c-.218-.13-.427-.26-.642-.379q-.925-.515-1.855-1.021a.258.258,0,0,0-.155-.024c-.168.028-.334.065-.5.1a.211.211,0,0,0-.09.046,2.7,2.7,0,0,1-1.47.641,3.911,3.911,0,0,1-1.921-.277c-.009,0-.016-.013-.029-.024a1.686,1.686,0,0,1,.662-.494,3.043,3.043,0,0,1,1.124-.247,6.677,6.677,0,0,1,1.6.168,2.784,2.784,0,0,0,.532.005l.005-.027c-.151-.083-.3-.165-.453-.249-.466-.263-.932-.528-1.4-.79A.226.226,0,0,0,25.4,34.2c-.124.019-.246.047-.367.076a.24.24,0,0,0-.1.049,2.708,2.708,0,0,1-1.491.644,3.931,3.931,0,0,1-1.891-.275.2.2,0,0,1-.038-.026,1.539,1.539,0,0,1,.541-.437,2.846,2.846,0,0,1,1.163-.3,6.091,6.091,0,0,1,1.677.164,2.727,2.727,0,0,0,.4.027l.01-.026c-.022-.017-.042-.035-.065-.05q-.683-.443-1.367-.884a.354.354,0,0,0-.134-.049c-.148-.023-.3-.041-.445-.057a.26.26,0,0,0-.121.012,2.81,2.81,0,0,1-1.961.046,4.112,4.112,0,0,1-1.4-.8,1.466,1.466,0,0,1,.631-.242,3.329,3.329,0,0,1,1.925.331c.288.13.558.3.84.441.118.06.248.1.372.148l.011-.024c-.171-.129-.348-.252-.512-.389-.363-.3-.718-.616-1.079-.922a.3.3,0,0,0-.144-.068c-.234-.033-.469-.06-.7-.086a.238.238,0,0,0-.111.014,2.8,2.8,0,0,1-2.028.019,4.107,4.107,0,0,1-1.324-.778,1.4,1.4,0,0,1,.58-.233,3.034,3.034,0,0,1,1.57.16,6.256,6.256,0,0,1,1.21.583,1.929,1.929,0,0,0,.77.223c-.034-.04-.051-.064-.071-.083a11.392,11.392,0,0,1-1.333-1.59.315.315,0,0,0-.108-.092c-.184-.1-.37-.193-.557-.285a.236.236,0,0,0-.109-.025,2.89,2.89,0,0,1-2.116-.861,4.3,4.3,0,0,1-.747-.962.491.491,0,0,1-.023-.053,1.605,1.605,0,0,1,.758.011,3.294,3.294,0,0,1,1.541.9,9.528,9.528,0,0,1,.648.708,2.317,2.317,0,0,0,.556.444c-.02-.043-.026-.063-.037-.08a8.044,8.044,0,0,1-.781-1.6.75.75,0,0,0-.188-.293,1.439,1.439,0,0,0-.514-.352,2.128,2.128,0,0,1-1.152-1.11,3.1,3.1,0,0,1-.271-.805,1.1,1.1,0,0,1,.534.174,2.383,2.383,0,0,1,.866.942c.122.222.214.459.327.686.07.141.153.276.23.414l.036-.016c-.03-.1-.066-.2-.09-.3-.1-.416-.192-.833-.29-1.249a.471.471,0,0,0-.06-.114.131.131,0,0,0-.021-.023,1.8,1.8,0,0,0-.638-.459,2.185,2.185,0,0,1-1.208-1.314c-.072-.183-.123-.375-.183-.563l.023-.03a2.6,2.6,0,0,1,.3.082,2.011,2.011,0,0,1,.983.886c.17.285.3.594.442.9a1.683,1.683,0,0,0,.331.46c-.016-.164-.038-.3-.041-.434-.011-.435-.012-.869-.022-1.3a.567.567,0,0,0-.222-.448,1.664,1.664,0,0,1-.648-1.149,5.567,5.567,0,0,1,0-.669,2.907,2.907,0,0,1,.295.232,1.806,1.806,0,0,1,.456,1c.038.226.056.455.085.682a.226.226,0,0,0,.052.116q.033-.216.065-.433a4.427,4.427,0,0,1,.28-1.045.5.5,0,0,0,.027-.3c-.023-.109-.031-.22-.05-.33a.254.254,0,0,0-.041-.1,1.592,1.592,0,0,1-.281-1.238,7.166,7.166,0,0,1,.185-.709.908.908,0,0,1,.288.423,2.191,2.191,0,0,1,.027,1.215,1.8,1.8,0,0,0-.1.614.409.409,0,0,0,.041.148c.041-.1.083-.192.122-.289a16.261,16.261,0,0,1,1.212-2.365,1.178,1.178,0,0,0,.127-.348,2.948,2.948,0,0,1,.533-1.222,1.229,1.229,0,0,1,.544-.409c.022-.008.046-.012.078-.021a2.389,2.389,0,0,1-.148.792,1.676,1.676,0,0,1-.815.977.707.707,0,0,0-.309.312,16.59,16.59,0,0,0-1.02,2.111c-.009.022-.016.045-.024.067l.023.015c.059-.089.125-.174.174-.268a3.3,3.3,0,0,1,.636-.887,1.5,1.5,0,0,1,.748-.412.494.494,0,0,1,.061-.011c.031,0,.062,0,.12,0-.062.147-.112.286-.178.416A1.874,1.874,0,0,1,19.939,21.6a.656.656,0,0,0-.487.445,6.271,6.271,0,0,0-.38,1.417c-.016.144-.033.288-.038.437a.989.989,0,0,0,.319-.36A3.164,3.164,0,0,1,20,22.626a1.435,1.435,0,0,1,.813-.415c.017,0,.034,0,.052-.005a.207.207,0,0,1,.032,0c0,.01.007.021,0,.029a2.119,2.119,0,0,1-.987,1.281,1.3,1.3,0,0,1-.387.148c-.214.037-.333.2-.492.317-.015.011-.02.043-.021.066a8.121,8.121,0,0,0,.095,1.727.324.324,0,0,0,.03.058,3.487,3.487,0,0,0,.207-.362,2.863,2.863,0,0,1,.622-.991,1.073,1.073,0,0,1,.676-.333,2.311,2.311,0,0,1-.23.642,1.7,1.7,0,0,1-.981.839c-.113.038-.2.165-.291.257-.015.015,0,.06,0,.091a10.133,10.133,0,0,0,.665,2.19c.008.019.019.036.037.068A1.318,1.318,0,0,0,20,27.71a3.788,3.788,0,0,1,.256-1.377,1.687,1.687,0,0,1,.623-.8c.039-.026.083-.044.147-.077.007.185.023.351.019.516a2.306,2.306,0,0,1-.664,1.671.535.535,0,0,1-.11.1c-.223.123-.263.365-.368.563-.016.03.012.092.032.133a8.909,8.909,0,0,0,1.353,2.036c.224.257.466.5.7.746.018.019.039.036.076.07a1.613,1.613,0,0,0-.2-.734,5.351,5.351,0,0,1-.76-1.873,2.291,2.291,0,0,1,.113-1.292c.031-.073.072-.141.121-.235.12.163.234.306.336.458a3.387,3.387,0,0,1,.625,1.936,2.461,2.461,0,0,1-.195.966.23.23,0,0,0-.019.109c.024.232.051.463.082.694a.226.226,0,0,0,.058.127,15.655,15.655,0,0,0,1.895,1.505c.011.007.025.012.063.029-.009-.11-.01-.206-.027-.3a1.983,1.983,0,0,0-.258-.688,5.037,5.037,0,0,1-.639-1.512A2.472,2.472,0,0,1,23.308,29c.034-.087.081-.169.135-.281.137.19.267.356.381.532a3.275,3.275,0,0,1,.567,2.075,2.479,2.479,0,0,1-.18.758.272.272,0,0,0-.022.13q.044.394.1.787a.144.144,0,0,0,.05.094c.445.285.892.567,1.339.849.005,0,.013,0,.039,0-.013-.1-.019-.194-.039-.286a2.031,2.031,0,0,0-.247-.615,4.928,4.928,0,0,1-.671-1.676,2.288,2.288,0,0,1,.127-1.4c.026-.056.059-.109.107-.195.176.263.351.5.5.748a3.069,3.069,0,0,1,.444,1.765A2.708,2.708,0,0,1,25.8,33a1.107,1.107,0,0,0-.036.54c.017.124.04.248.047.372a.183.183,0,0,0,.1.166c.383.219.765.441,1.149.66.229.13.461.257.71.4a2.511,2.511,0,0,0,0-.258,2.452,2.452,0,0,0-.376-.94,4.416,4.416,0,0,1-.6-1.763,2.111,2.111,0,0,1,.178-1.16c.023-.046.052-.089.085-.145a3.449,3.449,0,0,1,.9,2.927.819.819,0,0,1-.068.251.88.88,0,0,0-.05.587c.021.162.036.325.062.486a.188.188,0,0,0,.075.121q1.174.69,2.352,1.372a.147.147,0,0,0,.035,0,1.873,1.873,0,0,0-.011-.213,2.038,2.038,0,0,0-.27-.738,4.87,4.87,0,0,1-.669-1.676,2.21,2.21,0,0,1,.177-1.493c.011-.021.026-.04.048-.074.054.067.1.127.152.189a3.718,3.718,0,0,1,.769,1.7,2.806,2.806,0,0,1-.147,1.447.871.871,0,0,0,0,.357c.013.166.034.332.062.5a.243.243,0,0,0,.081.141c.234.18.473.354.714.526a.113.113,0,0,0,.1,0c.249-.177.5-.359.741-.541a.124.124,0,0,0,.045-.074c.036-.262.069-.524.1-.787a.172.172,0,0,0-.013-.08,2.845,2.845,0,0,1,0-2.118,4.121,4.121,0,0,1,.719-1.215c.008-.01.019-.018.036-.034a1.183,1.183,0,0,1,.2.454,2.87,2.87,0,0,1-.1,1.582,6.22,6.22,0,0,1-.618,1.319,1.836,1.836,0,0,0-.224.84.744.744,0,0,0,.076-.032q1.145-.666,2.291-1.332a.187.187,0,0,0,.111-.157c.025-.249.06-.5.088-.746a.283.283,0,0,0-.015-.131,2.819,2.819,0,0,1-.03-1.991,4.114,4.114,0,0,1,.792-1.364,1.456,1.456,0,0,1,.24.615,3.11,3.11,0,0,1-.178,1.569,7.369,7.369,0,0,1-.587,1.208,1.516,1.516,0,0,0-.193.868c.162-.089.307-.167.451-.248.439-.248.876-.5,1.317-.745a.335.335,0,0,0,.206-.3c.007-.191.045-.38.066-.57a.213.213,0,0,0-.014-.1,2.823,2.823,0,0,1-.012-2.069,4.13,4.13,0,0,1,.727-1.247c.011-.013.02-.029.043-.063.048.093.09.162.122.237a2.363,2.363,0,0,1,.094,1.394,5.42,5.42,0,0,1-.731,1.752,1.844,1.844,0,0,0-.219.8c.045-.024.075-.038.1-.055.417-.265.835-.528,1.249-.8a.2.2,0,0,0,.079-.122c.036-.262.065-.525.093-.788a.24.24,0,0,0-.013-.111,2.849,2.849,0,0,1,.03-2.157,4.18,4.18,0,0,1,.73-1.2,1.445,1.445,0,0,1,.235.589,2.926,2.926,0,0,1-.117,1.421,5.885,5.885,0,0,1-.606,1.312,1.775,1.775,0,0,0-.241.912c.043-.024.07-.037.094-.053a15.325,15.325,0,0,0,1.845-1.468.256.256,0,0,0,.07-.141c.033-.227.058-.456.083-.684a.212.212,0,0,0-.01-.1,2.813,2.813,0,0,1-.015-2.059,4.132,4.132,0,0,1,.771-1.3,1.477,1.477,0,0,1,.237.6,2.9,2.9,0,0,1-.122,1.42,5.746,5.746,0,0,1-.62,1.329,1.822,1.822,0,0,0-.215.752.253.253,0,0,0,.051-.03,10.026,10.026,0,0,0,2.081-2.814.206.206,0,0,0,0-.194,1.547,1.547,0,0,0-.419-.567,1.993,1.993,0,0,1-.669-1.352,8.328,8.328,0,0,1-.005-.847.839.839,0,0,1,.333.216,2.084,2.084,0,0,1,.581,1.134c.06.3.068.614.112.92.024.165.074.326.112.489h.043c.05-.12.1-.238.15-.359a10.331,10.331,0,0,0,.539-1.882.155.155,0,0,0-.048-.156,1.084,1.084,0,0,0-.383-.254,1.692,1.692,0,0,1-.959-1.043c-.045-.119-.077-.244-.124-.394.087.02.151.029.21.049a1.525,1.525,0,0,1,.8.7c.12.2.2.417.312.623.055.106.124.206.186.308l.031-.009c.014-.083.03-.165.041-.249a8.957,8.957,0,0,0,.069-1.469.194.194,0,0,0-.074-.149,1.539,1.539,0,0,0-.6-.316,1.785,1.785,0,0,1-1.019-.908c-.085-.158-.15-.326-.233-.508a1.034,1.034,0,0,1,.493.113,2.18,2.18,0,0,1,.869.835c.086.134.151.283.239.416s.177.227.267.339l.038-.017c-.01-.115-.02-.229-.031-.343a5.487,5.487,0,0,0-.456-1.641.557.557,0,0,0-.337-.283,1.843,1.843,0,0,1-1.212-.884c-.114-.188-.2-.394-.3-.611a1.085,1.085,0,0,1,.606.168,2.559,2.559,0,0,1,.9,1.007c.075.134.155.264.233.4l.037-.02c-.056-.137-.111-.275-.169-.411a16.569,16.569,0,0,0-.931-1.854.423.423,0,0,0-.205-.189,1.552,1.552,0,0,1-.669-.61A2.4,2.4,0,0,1,40.7,17.43a1.014,1.014,0,0,1,.473.267,2.332,2.332,0,0,1,.606,1.078c.037.123.055.252.093.375a1.158,1.158,0,0,0,.112.278A16.161,16.161,0,0,1,43.2,21.81c.037.091.076.182.127.3a.931.931,0,0,0,.008-.5,3.024,3.024,0,0,1-.136-1.071,1.25,1.25,0,0,1,.36-.85c.052.146.107.275.144.409a1.64,1.64,0,0,1-.133,1.38,2.034,2.034,0,0,0-.2.721.149.149,0,0,0,.017.08,5.26,5.26,0,0,1,.356,1.464c0,.034.012.068.019.1l.027,0a2.531,2.531,0,0,0,.053-.3,2.821,2.821,0,0,1,.294-1.206,1.069,1.069,0,0,1,.525-.5,1.907,1.907,0,0,1-.687,1.814.547.547,0,0,0-.188.386,10.951,10.951,0,0,1-.062,1.647c0,.034,0,.068-.007.132a1.516,1.516,0,0,0,.34-.5,3.766,3.766,0,0,1,.749-1.28,1.638,1.638,0,0,1,.859-.525c.036-.007.074-.008.123-.014a3.065,3.065,0,0,1-.386,1.014,2.113,2.113,0,0,1-1.249.981.243.243,0,0,0-.076.051,1.223,1.223,0,0,0-.475.836c-.05.393-.185.775-.269,1.174a2.513,2.513,0,0,0,.216-.359A4.343,4.343,0,0,1,44.22,26a1.773,1.773,0,0,1,.934-.633c.043-.01.087-.013.164-.023-.069.215-.121.412-.2.6a2.173,2.173,0,0,1-1.244,1.319,1.813,1.813,0,0,0-.614.459.178.178,0,0,0-.044.069,8.442,8.442,0,0,1-.848,1.752.233.233,0,0,0-.009.041,1.783,1.783,0,0,0,.512-.4,5.255,5.255,0,0,1,1.472-1.343,2.225,2.225,0,0,1,1.374-.339c.044,0,.087.016.162.03-.162.228-.3.448-.465.65a3.205,3.205,0,0,1-1.573,1.1,2.584,2.584,0,0,1-.844.118.363.363,0,0,0-.158.034c-.132.061-.258.137-.391.2a.813.813,0,0,0-.349.3,10.331,10.331,0,0,1-1.218,1.442.265.265,0,0,0-.069.1c.1-.018.208-.031.31-.056a1.957,1.957,0,0,0,.545-.228,4.867,4.867,0,0,1,1.788-.692,2.264,2.264,0,0,1,1.251.123c.07.03.135.069.225.115-.126.1-.234.187-.348.268a3.632,3.632,0,0,1-1.613.668,2.668,2.668,0,0,1-1.393-.166.255.255,0,0,0-.12-.019c-.246.027-.491.056-.736.088a.156.156,0,0,0-.082.037,15.874,15.874,0,0,1-1.626,1.337l.012.027a2.61,2.61,0,0,0,.382-.155,5.9,5.9,0,0,1,1.547-.69,2.609,2.609,0,0,1,1.472-.01c.125.039.242.1.392.167-.17.125-.312.238-.463.339a3.324,3.324,0,0,1-2.112.619,2.554,2.554,0,0,1-.77-.172.648.648,0,0,0-.191-.027.985.985,0,0,0-.114.012,1.184,1.184,0,0,0-.645.223c-.381.268-.781.508-1.174.76-.019.012-.036.027-.065.049a1.889,1.889,0,0,0,.691-.059,4.554,4.554,0,0,1,2.049-.012,2.047,2.047,0,0,1,.956.509c.032.032.062.066.092.1a.2.2,0,0,1,.018.043c-.159.054-.313.115-.473.158a3.8,3.8,0,0,1-1.2.151,2.8,2.8,0,0,1-1.743-.658.368.368,0,0,0-.117-.059.827.827,0,0,0-.778.105c-.481.306-.991.564-1.488.843-.026.014-.051.031-.09.055a2,2,0,0,0,.83-.042,4.489,4.489,0,0,1,2.038-.013,1.99,1.99,0,0,1,1.029.582c.014.015.025.032.052.067-.169.058-.326.12-.487.163a3.79,3.79,0,0,1-1.218.149,2.792,2.792,0,0,1-1.712-.654c-.005,0-.01-.011-.016-.013-.136-.037-.271-.077-.407-.11a.5.5,0,0,0-.406.021c-.756.435-1.521.857-2.282,1.284-.045.025-.087.054-.151.095a2.035,2.035,0,0,0,.728.079,4.558,4.558,0,0,1,2.247.255,1.993,1.993,0,0,1,.819.594c.034.043.062.09.106.155-.2.038-.389.08-.576.106a3.477,3.477,0,0,1-1.708-.157,2.618,2.618,0,0,1-1.074-.716.178.178,0,0,0-.062-.054q-.275-.1-.553-.188a.076.076,0,0,0-.059.008c-.282.191-.563.382-.856.582.16.141.307.267.45.4a8.884,8.884,0,0,1,1.393,1.812,10.732,10.732,0,0,0-1.991-2.016C31.333,37.646,31.318,37.637,31.3,37.626Z" transform="translate(-16.748 -17.43)" fill="#6e6e6e"/>
    </g>
    <g id="Group_1490" data-name="Group 1490" transform="translate(6.884 0)">
      <g id="Group_1488" data-name="Group 1488" transform="translate(0 0)">
        <g id="Group_1474" data-name="Group 1474">
          <g id="Group_1469" data-name="Group 1469" transform="translate(0 1.184)">
            <path id="Path_9766" data-name="Path 9766" d="M45.745,22.67a.692.692,0,0,1-.088.32,1.106,1.106,0,0,1-.273.324,1.41,1.41,0,0,1-.462.248,1.962,1.962,0,0,1-.627.094,1.534,1.534,0,0,1-1.159-.433,1.6,1.6,0,0,1-.416-1.16,1.909,1.909,0,0,1,.19-.871,1.376,1.376,0,0,1,.551-.585,1.879,1.879,0,0,1,1.433-.116,1.513,1.513,0,0,1,.44.235,1.117,1.117,0,0,1,.275.306.613.613,0,0,1,.1.3.318.318,0,0,1-.108.244.364.364,0,0,1-.259.1.264.264,0,0,1-.166-.051.816.816,0,0,1-.148-.166,1.248,1.248,0,0,0-.306-.334.7.7,0,0,0-.406-.111.691.691,0,0,0-.572.277,1.2,1.2,0,0,0-.217.757,1.476,1.476,0,0,0,.056.415.943.943,0,0,0,.161.323.7.7,0,0,0,.255.2.775.775,0,0,0,.329.069.743.743,0,0,0,.412-.111.982.982,0,0,0,.3-.341A.789.789,0,0,1,45.2,22.4a.3.3,0,0,1,.208-.076.308.308,0,0,1,.243.111A.358.358,0,0,1,45.745,22.67Z" transform="translate(-42.72 -20.401)" fill="#6e6e6e"/>
          </g>
          <g id="Group_1470" data-name="Group 1470" transform="translate(3.574)">
            <path id="Path_9767" data-name="Path 9767" d="M56.2,19.89V16.419a.54.54,0,0,1,.107-.364.362.362,0,0,1,.289-.123.378.378,0,0,1,.293.122.521.521,0,0,1,.112.365V19.89a.526.526,0,0,1-.112.365.383.383,0,0,1-.293.122.361.361,0,0,1-.286-.126A.533.533,0,0,1,56.2,19.89Z" transform="translate(-56.203 -15.933)" fill="#6e6e6e"/>
          </g>
          <g id="Group_1471" data-name="Group 1471" transform="translate(5.051 1.184)">
            <path id="Path_9768" data-name="Path 9768" d="M64.163,22.231H62.6a1.062,1.062,0,0,0,.11.48.735.735,0,0,0,.676.42.961.961,0,0,0,.263-.034.864.864,0,0,0,.23-.106,1.731,1.731,0,0,0,.206-.154c.062-.055.143-.129.243-.223a.258.258,0,0,1,.176-.053.287.287,0,0,1,.2.068.238.238,0,0,1,.077.19.524.524,0,0,1-.085.254,1.016,1.016,0,0,1-.257.279,1.464,1.464,0,0,1-.431.221,1.844,1.844,0,0,1-.6.088,1.6,1.6,0,0,1-1.2-.439,1.639,1.639,0,0,1-.427-1.194,2,2,0,0,1,.105-.657,1.452,1.452,0,0,1,.308-.521,1.336,1.336,0,0,1,.5-.333,1.8,1.8,0,0,1,.657-.116,1.554,1.554,0,0,1,.8.2,1.3,1.3,0,0,1,.5.512,1.339,1.339,0,0,1,.168.638.4.4,0,0,1-.173.392A1.082,1.082,0,0,1,64.163,22.231ZM62.6,21.776h1.451a.97.97,0,0,0-.222-.614.663.663,0,0,0-.505-.2.638.638,0,0,0-.491.207A1.02,1.02,0,0,0,62.6,21.776Z" transform="translate(-61.779 -20.401)" fill="#6e6e6e"/>
          </g>
          <g id="Group_1472" data-name="Group 1472" transform="translate(8.596 1.184)">
            <path id="Path_9769" data-name="Path 9769" d="M77.348,23.209a2.457,2.457,0,0,1-.562.339,1.566,1.566,0,0,1-.607.113,1.152,1.152,0,0,1-.541-.122.885.885,0,0,1-.359-.33.851.851,0,0,1-.126-.452.806.806,0,0,1,.208-.559,1.04,1.04,0,0,1,.571-.311c.051-.012.177-.037.378-.079s.374-.079.517-.113.3-.075.468-.124a.841.841,0,0,0-.127-.465.571.571,0,0,0-.468-.148.976.976,0,0,0-.458.085.744.744,0,0,0-.264.255c-.074.113-.125.188-.156.224a.255.255,0,0,1-.2.054.341.341,0,0,1-.233-.086.281.281,0,0,1-.1-.221.677.677,0,0,1,.149-.411,1.071,1.071,0,0,1,.467-.328A2.1,2.1,0,0,1,76.7,20.4a2.234,2.234,0,0,1,.83.124.776.776,0,0,1,.427.394,1.731,1.731,0,0,1,.124.716q0,.281,0,.478c0,.131,0,.276,0,.437a1.6,1.6,0,0,0,.075.47,1.52,1.52,0,0,1,.074.315.3.3,0,0,1-.116.224.385.385,0,0,1-.262.1.356.356,0,0,1-.244-.116A1.681,1.681,0,0,1,77.348,23.209Zm-.053-1.158a4.039,4.039,0,0,1-.511.137c-.224.047-.379.083-.465.1a.655.655,0,0,0-.246.132.339.339,0,0,0-.117.275.4.4,0,0,0,.138.309.507.507,0,0,0,.36.127.947.947,0,0,0,.439-.1.7.7,0,0,0,.294-.268,1.23,1.23,0,0,0,.108-.6Z" transform="translate(-75.152 -20.401)" fill="#6e6e6e"/>
          </g>
          <g id="Group_1473" data-name="Group 1473" transform="translate(12.313 1.19)">
            <path id="Path_9770" data-name="Path 9770" d="M89.928,20.865v.1a1.4,1.4,0,0,1,.461-.409,1.232,1.232,0,0,1,.576-.13,1.156,1.156,0,0,1,.567.138.876.876,0,0,1,.372.39.927.927,0,0,1,.1.316,3.292,3.292,0,0,1,.023.434V23.19a.532.532,0,0,1-.109.364.4.4,0,0,1-.576,0,.527.527,0,0,1-.112-.361V21.857a1.324,1.324,0,0,0-.11-.606.446.446,0,0,0-.438-.209.647.647,0,0,0-.39.126.735.735,0,0,0-.258.351,2.52,2.52,0,0,0-.059.668v1a.521.521,0,0,1-.112.365.382.382,0,0,1-.292.122.362.362,0,0,1-.285-.126.528.528,0,0,1-.111-.361V20.877a.506.506,0,0,1,.1-.341.345.345,0,0,1,.273-.113.373.373,0,0,1,.191.05.357.357,0,0,1,.136.149A.525.525,0,0,1,89.928,20.865Z" transform="translate(-89.177 -20.423)" fill="#6e6e6e"/>
          </g>
        </g>
        <g id="Group_1482" data-name="Group 1482" transform="translate(0.775 10.101)">
          <g id="Group_1475" data-name="Group 1475" transform="translate(0 0.017)">
            <path id="Path_9771" data-name="Path 9771" d="M45.643,56.048V55.9h.274V54.254h-.274v-.146h.93c.4,0,.715.208.715.595s-.271.584-.747.584H46.1V55.9h.342v.146Zm.895-.908c.334,0,.555-.118.555-.434s-.267-.451-.555-.451H46.1v.886Z" transform="translate(-45.643 -54.108)" fill="#6e6e6e"/>
          </g>
          <g id="Group_1476" data-name="Group 1476" transform="translate(1.886 0.017)">
            <path id="Path_9772" data-name="Path 9772" d="M54.222,56.048l-.366-.667c-.048-.089-.084-.141-.189-.143h-.451V55.9h.315v.146h-.774V55.9h.273V54.254h-.273v-.146h.933c.4,0,.712.181.712.565a.512.512,0,0,1-.472.535.543.543,0,0,1,.15.2l.279.5h.21v.146Zm-.574-.951c.334,0,.562-.1.562-.419s-.267-.424-.562-.424h-.432V55.1Z" transform="translate(-52.758 -54.108)" fill="#6e6e6e"/>
          </g>
          <g id="Group_1477" data-name="Group 1477" transform="translate(3.957)">
            <path id="Path_9773" data-name="Path 9773" d="M60.573,55.021a1.031,1.031,0,1,1,1.032,1A.976.976,0,0,1,60.573,55.021Zm1.864.008a.833.833,0,1,0-.832.835A.809.809,0,0,0,62.437,55.029Z" transform="translate(-60.573 -54.045)" fill="#6e6e6e"/>
          </g>
          <g id="Group_1478" data-name="Group 1478" transform="translate(6.158 0.017)">
            <path id="Path_9774" data-name="Path 9774" d="M69.538,54.254h-.273v-.146h.741v.146h-.282v1.094c0,.516-.261.7-.813.7h-.036V55.9h.036c.481,0,.627-.173.627-.527Z" transform="translate(-68.875 -54.108)" fill="#6e6e6e"/>
          </g>
          <g id="Group_1479" data-name="Group 1479" transform="translate(7.544 0.017)">
            <path id="Path_9775" data-name="Path 9775" d="M74.106,56.048V55.9h.274V54.254h-.274v-.146H75.74v.446h-.18v-.3h-.994v.754h.877v.146h-.877V55.9h.992v-.3h.183v.443Z" transform="translate(-74.106 -54.108)" fill="#6e6e6e"/>
          </g>
          <g id="Group_1480" data-name="Group 1480" transform="translate(9.523)">
            <path id="Path_9776" data-name="Path 9776" d="M83.511,55.556a1.014,1.014,0,0,1-.937.465.988.988,0,1,1,0-1.976.814.814,0,0,1,.705.314v-.3h.177v.627h-.189v-.056c0-.157-.281-.43-.69-.43a.831.831,0,0,0,.009,1.662.866.866,0,0,0,.786-.389Z" transform="translate(-81.571 -54.045)" fill="#6e6e6e"/>
          </g>
          <g id="Group_1481" data-name="Group 1481" transform="translate(11.672 0.017)">
            <path id="Path_9777" data-name="Path 9777" d="M90.246,56.048V55.9h.273V54.254h-.658v.3h-.18v-.446h1.861v.446h-.18v-.3h-.657V55.9h.255v.146Z" transform="translate(-89.682 -54.108)" fill="#6e6e6e"/>
          </g>
        </g>
        <g id="Group_1483" data-name="Group 1483" transform="translate(0.702 4.74)">
          <path id="Path_9778" data-name="Path 9778" d="M45.367,37.774V34.3a.546.546,0,0,1,.106-.364.366.366,0,0,1,.29-.123.38.38,0,0,1,.294.122.525.525,0,0,1,.111.365v3.471a.513.513,0,0,1-.113.365.376.376,0,0,1-.291.122.361.361,0,0,1-.286-.126A.533.533,0,0,1,45.367,37.774Z" transform="translate(-45.367 -33.816)" fill="#6e6e6e"/>
        </g>
        <g id="Group_1484" data-name="Group 1484" transform="translate(2.29 5.925)">
          <path id="Path_9779" data-name="Path 9779" d="M53.554,41.095a2.45,2.45,0,0,1-.561.338,1.555,1.555,0,0,1-.608.113,1.15,1.15,0,0,1-.542-.122.89.89,0,0,1-.358-.329.853.853,0,0,1-.126-.452.809.809,0,0,1,.208-.56,1.045,1.045,0,0,1,.572-.311c.05-.012.177-.038.378-.079s.374-.078.517-.113.3-.075.468-.124a.837.837,0,0,0-.128-.465.569.569,0,0,0-.468-.148.975.975,0,0,0-.459.085.745.745,0,0,0-.263.255,2.664,2.664,0,0,1-.156.224.251.251,0,0,1-.194.054.342.342,0,0,1-.234-.086.281.281,0,0,1-.1-.222.675.675,0,0,1,.15-.41,1.069,1.069,0,0,1,.466-.329,2.1,2.1,0,0,1,.788-.129,2.235,2.235,0,0,1,.83.124.77.77,0,0,1,.426.394,1.724,1.724,0,0,1,.124.716c0,.188,0,.346,0,.477s0,.277,0,.436a1.6,1.6,0,0,0,.075.471,1.51,1.51,0,0,1,.074.315.3.3,0,0,1-.116.224.392.392,0,0,1-.263.1.353.353,0,0,1-.243-.116A1.746,1.746,0,0,1,53.554,41.095ZM53.5,39.936a4.173,4.173,0,0,1-.512.137c-.224.047-.378.082-.464.105a.644.644,0,0,0-.246.132.339.339,0,0,0-.117.275.407.407,0,0,0,.138.309.513.513,0,0,0,.361.127.941.941,0,0,0,.438-.1.692.692,0,0,0,.295-.269,1.228,1.228,0,0,0,.108-.6Z" transform="translate(-51.359 -38.286)" fill="#6e6e6e"/>
        </g>
        <g id="Group_1485" data-name="Group 1485" transform="translate(6.067 4.74)">
          <path id="Path_9780" data-name="Path 9780" d="M66.367,34.273V35.5a1.832,1.832,0,0,1,.46-.359,1.228,1.228,0,0,1,.58-.124,1.284,1.284,0,0,1,.7.189,1.252,1.252,0,0,1,.466.547,2.016,2.016,0,0,1,.165.852,2.279,2.279,0,0,1-.093.668,1.585,1.585,0,0,1-.267.526,1.227,1.227,0,0,1-.427.344,1.245,1.245,0,0,1-.553.122,1.327,1.327,0,0,1-.347-.044,1.02,1.02,0,0,1-.277-.116,1.215,1.215,0,0,1-.195-.148c-.054-.051-.124-.127-.212-.229v.08a.48.48,0,0,1-.109.341.357.357,0,0,1-.275.116.341.341,0,0,1-.271-.116.5.5,0,0,1-.1-.341V34.309a.586.586,0,0,1,.1-.368.329.329,0,0,1,.275-.125.351.351,0,0,1,.284.119A.511.511,0,0,1,66.367,34.273Zm.038,2.378a1.1,1.1,0,0,0,.217.734.718.718,0,0,0,.574.257.655.655,0,0,0,.519-.262,1.144,1.144,0,0,0,.219-.752,1.473,1.473,0,0,0-.091-.545.792.792,0,0,0-.258-.354.635.635,0,0,0-.39-.124.7.7,0,0,0-.408.124.836.836,0,0,0-.281.361A1.4,1.4,0,0,0,66.405,36.651Z" transform="translate(-65.61 -33.816)" fill="#6e6e6e"/>
        </g>
        <g id="Group_1486" data-name="Group 1486" transform="translate(9.732 5.925)">
          <path id="Path_9781" data-name="Path 9781" d="M81.822,40.115H80.256a1.063,1.063,0,0,0,.11.481.737.737,0,0,0,.676.42.94.94,0,0,0,.263-.034.857.857,0,0,0,.23-.105,1.735,1.735,0,0,0,.2-.154c.062-.055.143-.13.243-.223a.262.262,0,0,1,.176-.053.29.29,0,0,1,.2.068.243.243,0,0,1,.077.191.524.524,0,0,1-.086.253.988.988,0,0,1-.256.278,1.451,1.451,0,0,1-.431.222,1.852,1.852,0,0,1-.6.088,1.594,1.594,0,0,1-1.2-.44,1.638,1.638,0,0,1-.429-1.193,1.983,1.983,0,0,1,.106-.658,1.465,1.465,0,0,1,.307-.521,1.34,1.34,0,0,1,.5-.332,1.8,1.8,0,0,1,.657-.116,1.556,1.556,0,0,1,.8.2,1.291,1.291,0,0,1,.5.512,1.337,1.337,0,0,1,.168.639.4.4,0,0,1-.173.391A1.073,1.073,0,0,1,81.822,40.115Zm-1.566-.455h1.451a.979.979,0,0,0-.221-.614.661.661,0,0,0-.506-.2.644.644,0,0,0-.492.206A1.036,1.036,0,0,0,80.256,39.661Z" transform="translate(-79.438 -38.286)" fill="#6e6e6e"/>
        </g>
        <g id="Group_1487" data-name="Group 1487" transform="translate(13.405 4.74)">
          <path id="Path_9782" data-name="Path 9782" d="M93.3,37.774V34.3a.54.54,0,0,1,.107-.364.363.363,0,0,1,.289-.123.377.377,0,0,1,.293.122.521.521,0,0,1,.112.365v3.471a.516.516,0,0,1-.114.365.376.376,0,0,1-.291.122.358.358,0,0,1-.285-.126A.533.533,0,0,1,93.3,37.774Z" transform="translate(-93.296 -33.816)" fill="#6e6e6e"/>
        </g>
      </g>
      <g id="Group_1489" data-name="Group 1489" transform="translate(14.724 9.311)">
        <path id="Path_9783" data-name="Path 9783" d="M99.794,51.8a.76.76,0,1,1-.757-.739A.743.743,0,0,1,99.794,51.8Zm-1.33,0a.573.573,0,0,0,.577.591.566.566,0,0,0,.564-.586.571.571,0,1,0-1.141,0Zm.455.387h-.171V51.45a1.519,1.519,0,0,1,.284-.023.459.459,0,0,1,.257.054.2.2,0,0,1,.072.162.189.189,0,0,1-.153.171v.009a.218.218,0,0,1,.135.18.567.567,0,0,0,.054.185h-.185a.627.627,0,0,1-.059-.18c-.014-.081-.059-.117-.153-.117h-.081Zm0-.419H99c.094,0,.171-.032.171-.108s-.05-.113-.158-.113a.41.41,0,0,0-.095.009Z" transform="translate(-98.274 -51.063)" fill="#6e6e6e"/>
      </g>
    </g>
    <g id="Group_1491" data-name="Group 1491" transform="translate(6.131 23.381)">
      <path id="Path_9784" data-name="Path 9784" d="M42.282,104.149H43.5a1.017,1.017,0,0,1,1.137,1.027v.009a1.062,1.062,0,0,1-1.2,1.043h-.5v.891h-.653Zm1.171,1.5a.46.46,0,0,0,.517-.45v-.009c0-.293-.2-.45-.53-.45h-.5v.908Z" transform="translate(-41.645 -104.149)" fill="#6e6e6e"/>
      <path id="Path_9785" data-name="Path 9785" d="M52.793,105.846v-1.7h.653v1.68c0,.484.242.734.641.734s.641-.242.641-.713v-1.7h.653v1.676a1.2,1.2,0,0,1-1.3,1.34A1.178,1.178,0,0,1,52.793,105.846Z" transform="translate(-49.37 -104.149)" fill="#6e6e6e"/>
      <path id="Path_9786" data-name="Path 9786" d="M65.065,104.149h1.358a1.183,1.183,0,0,1,.865.3.933.933,0,0,1,.254.679v.008a.922.922,0,0,1-.636.921l.725,1.061h-.764l-.636-.95h-.513v.95h-.653Zm1.315,1.442c.318,0,.5-.17.5-.42v-.008c0-.28-.2-.424-.513-.424h-.649v.853Z" transform="translate(-58.39 -104.149)" fill="#6e6e6e"/>
      <path id="Path_9787" data-name="Path 9787" d="M76.745,104.149H77.4v2.97h-.653Z" transform="translate(-66.974 -104.149)" fill="#6e6e6e"/>
      <path id="Path_9788" data-name="Path 9788" d="M82.112,104.751h-.9v-.6h2.461v.6h-.9v2.367h-.654Z" transform="translate(-70.254 -104.149)" fill="#6e6e6e"/>
      <path id="Path_9789" data-name="Path 9789" d="M92.366,105.948l-1.141-1.8h.764l.708,1.192.721-1.192h.742l-1.141,1.786v1.184h-.653Z" transform="translate(-77.616 -104.149)" fill="#6e6e6e"/>
      <path id="Path_9790" data-name="Path 9790" d="M41.153,118.869h.6l1.273,2.991h-.683l-.271-.666H40.818l-.271.666H39.88Zm.687,1.748-.395-.963-.395.963Z" transform="translate(-39.88 -114.968)" fill="#6e6e6e"/>
      <path id="Path_9791" data-name="Path 9791" d="M51.177,118.925h.7l.615,2.011.666-2.019h.56l.666,2.019L55,118.925h.683l-1.014,2.991H54.1l-.67-1.943-.67,1.943h-.569Z" transform="translate(-48.183 -115.003)" fill="#6e6e6e"/>
      <path id="Path_9792" data-name="Path 9792" d="M68.865,118.869h.6l1.273,2.991h-.683l-.272-.666H68.53l-.271.666h-.666Zm.687,1.748-.395-.963-.395.963Z" transform="translate(-60.247 -114.968)" fill="#6e6e6e"/>
      <path id="Path_9793" data-name="Path 9793" d="M81.193,118.949h1.358a1.182,1.182,0,0,1,.865.3.932.932,0,0,1,.255.679v.009a.922.922,0,0,1-.636.92l.725,1.061H83l-.636-.95h-.513v.95h-.653Zm1.315,1.442c.318,0,.5-.17.5-.42v-.009c0-.28-.2-.424-.513-.424h-.649v.853Z" transform="translate(-70.243 -115.026)" fill="#6e6e6e"/>
      <path id="Path_9794" data-name="Path 9794" d="M92.761,118.949h1.158a1.48,1.48,0,0,1,1.578,1.476v.008a1.487,1.487,0,0,1-1.578,1.485H92.761Zm1.158,2.38a.846.846,0,0,0,.9-.887v-.008a.853.853,0,0,0-.9-.9h-.5v1.79Z" transform="translate(-78.745 -115.026)" fill="#6e6e6e"/>
    </g>
  </g>
</svg>
