<svg id="Data_Security_Icon" data-name="Data Security Icon" xmlns="http://www.w3.org/2000/svg" width="46.956" height="46.956" viewBox="0 0 46.956 46.956">
  <g id="Group_1493" data-name="Group 1493" transform="translate(0)">
    <g id="Ellipse_1" data-name="Ellipse 1" fill="none" stroke="#c9c9c9" stroke-width="2">
      <circle cx="23.478" cy="23.478" r="23.478" stroke="none"/>
      <circle cx="23.478" cy="23.478" r="22.478" fill="none"/>
    </g>
    <g id="Ellipse_2" data-name="Ellipse 2" transform="translate(2.012 2.012)" fill="#f2f2f2" stroke="#c9c9c9" stroke-width="1">
      <circle cx="21.466" cy="21.466" r="21.466" stroke="none"/>
      <circle cx="21.466" cy="21.466" r="20.966" fill="none"/>
    </g>
  </g>
  <g id="hassle_free_delivery" transform="translate(-852.027 -2203.371)">
    <rect id="bond" width="33.311" height="33.311" transform="translate(858.85 2210.194)" fill="#fff" opacity="0"/>
    <g id="Group_4038" data-name="Group 4038" transform="translate(860.076 2216.944)">
      <g id="hassle_free_delivery_icon" transform="translate(0 0)">
        <path id="Path_7889" data-name="Path 7889" d="M562.35,501.5v15.661m-16.779-2.06h-4.693m5.394,2.092h-2.82c.015,0,0-.015,0-.033m20.115.033H552.175m10.666-4.185,6.6,4.185H571.7l0-.329v-4.412a2.587,2.587,0,0,0-2.193-2.553l-.811-3.244a.49.49,0,0,0,.388-.48v-.532a2.052,2.052,0,0,0-2.052-2.052h-3.7v-1.086a1.006,1.006,0,0,0-1.006-1.006H543.478a1.006,1.006,0,0,0-1.006,1.006l.061,9.512m29.132,0c-.3-1.344-2.059-1.146-2.107-1.144l-6.226-.026v6.343h.236m-.236-10.528h4.358l.8,3.2h-5.159ZM549.24,520.332a2.125,2.125,0,1,1,2.124-2.127,2.125,2.125,0,0,1-2.124,2.127Zm17.263,0a2.125,2.125,0,1,1,2.125-2.127,2.125,2.125,0,0,1-2.125,2.127Zm0,.981a3.106,3.106,0,1,1,3.106-3.108,3.106,3.106,0,0,1-3.106,3.108Zm-17.33,0a3.106,3.106,0,1,1,3.106-3.108,3.106,3.106,0,0,1-3.106,3.108Zm21.481-6.731a1.084,1.084,0,0,1-1.083-1.083v-1.083h2.166v2.166Z" transform="translate(-540.878 -501.5)" fill="none" stroke="#bdbdbd" stroke-linecap="round" stroke-linejoin="round" stroke-width="1"/>
        <path id="Path_7890" data-name="Path 7890" d="M663.146,758.029a.833.833,0,1,0,.833.833A.833.833,0,0,0,663.146,758.029Z" transform="translate(-654.885 -742.336)" fill="#bdbdbd"/>
        <path id="Path_7891" data-name="Path 7891" d="M945.334,758.029a.833.833,0,1,0,.833.833A.833.833,0,0,0,945.334,758.029Z" transform="translate(-919.809 -742.336)" fill="#bdbdbd"/>
        <path id="Path_7892" data-name="Path 7892" d="M754.614,723.825H747.29" transform="translate(-734.663 -710.225)" fill="#fff" stroke="#bdbdbd" stroke-linecap="round" stroke-linejoin="round" stroke-width="1"/>
        <path id="Path_7893" data-name="Path 7893" d="M559.165,705.654h6.278" transform="translate(-558.047 -693.165)" fill="#fff" stroke="#bdbdbd" stroke-linecap="round" stroke-linejoin="round" stroke-width="1"/>
        <g id="logo" transform="translate(3.977 4.016)">
          <path id="Path_7894" data-name="Path 7894" d="M609.5,572.321c-.027-.031-.053-.062-.081-.092a1.849,1.849,0,0,0-.7-.456,1.788,1.788,0,0,0-.5-.116,1.946,1.946,0,0,0-1.624.6,2.207,2.207,0,0,0-.486.8,2.353,2.353,0,0,0-.126.539,2.288,2.288,0,0,0-.011.436,2.414,2.414,0,0,0,.5,1.322,2.5,2.5,0,0,0,.74.633,2.846,2.846,0,0,0,.926.342c.116.021.235.03.353.043.049.005.1,0,.149.005a2.882,2.882,0,0,0,1.163-.221,2.781,2.781,0,0,0,.758-.458c.1-.082.184-.173.275-.261a.072.072,0,0,1,.061-.027c.024,0,.049,0,.08,0-.028.032-.052.06-.078.087a3,3,0,0,1-1.423.861,2.463,2.463,0,0,1-.43.083c-.126.011-.252.025-.377.024a2.986,2.986,0,0,1-1.277-.288,2.78,2.78,0,0,1-.779-.536,2.5,2.5,0,0,1-.477-2.88,2.167,2.167,0,0,1,.661-.8,2.048,2.048,0,0,1,.846-.365,1.906,1.906,0,0,1,.439-.034,1.989,1.989,0,0,1,1.355.576,1.633,1.633,0,0,1,.465.907c.013.077.032.153.045.23a1.606,1.606,0,0,1,.016.365,1.671,1.671,0,0,1-.1.473,1.723,1.723,0,0,1-.78.924,1.685,1.685,0,0,1-.588.2,1.729,1.729,0,0,1-.408.012,1.675,1.675,0,0,1-.911-.356,1.707,1.707,0,0,1-.636-1.02,1.623,1.623,0,0,1-.034-.421,1.737,1.737,0,0,1,1.331-1.608,1.659,1.659,0,0,1,.516-.042,1.71,1.71,0,0,1,1,.411c.035.03.068.063.1.095l.02.019Zm-.822.421-.007.01.02.015a.805.805,0,0,1,.168.14.779.779,0,0,1,.209.484.788.788,0,0,1-.1.443.668.668,0,0,1-.838.309.559.559,0,0,1-.354-.674.474.474,0,0,1,.55-.363.4.4,0,0,1,.34.442.343.343,0,0,1-.386.312.289.289,0,0,1-.251-.334.242.242,0,0,1,.29-.2.2.2,0,0,1,.141.306c-.019.032-.042.041-.066.027s-.028-.037-.01-.07a.158.158,0,0,0,.008-.016.115.115,0,0,0-.036-.136.148.148,0,0,0-.177,0,.188.188,0,0,0-.037.246.235.235,0,0,0,.313.063.3.3,0,0,0,.072-.418.367.367,0,0,0-.484-.084.427.427,0,0,0-.2.411.442.442,0,0,0,.114.272.573.573,0,0,0,.816.018.677.677,0,0,0,.2-.564.658.658,0,0,0-.107-.312.81.81,0,0,0-.676-.362.822.822,0,0,0-.387.08.631.631,0,0,0-.214.142.865.865,0,0,0-.2.842.886.886,0,0,0,.822.653.864.864,0,0,0,.4-.076.889.889,0,0,0,.523-.939.862.862,0,0,0-.3-.554A1.729,1.729,0,0,0,608.681,572.742Z" transform="translate(-605.892 -571.289)" fill="#69b244"/>
          <path id="Path_7895" data-name="Path 7895" d="M779.691,576.491c0-.034,0-.059,0-.085s.007-.026.026-.026h.784c.025,0,.026.013.026.032v3.165a.1.1,0,0,1-.087.091h-.629a.105.105,0,0,1-.086-.027.126.126,0,0,1-.031-.061c-.009-.067-.045-.09-.109-.066-.105.039-.21.079-.317.114a1.823,1.823,0,0,1-.374.083,1.35,1.35,0,0,1-.3-.008,1.629,1.629,0,0,1-.487-.133,1.722,1.722,0,0,1-.9-.914,1.6,1.6,0,0,1-.125-.482,1.732,1.732,0,0,1,1.287-1.861,2.017,2.017,0,0,1,.3-.048,1.476,1.476,0,0,1,.24,0,1.752,1.752,0,0,1,.754.214A.28.28,0,0,0,779.691,576.491Zm-1.784,1.493a.892.892,0,1,0,.891-.889.892.892,0,0,0-.891.889Z" transform="translate(-766.597 -575.701)" fill="#69b244"/>
          <path id="Path_7896" data-name="Path 7896" d="M666.588,578.961h-1.33a.048.048,0,0,1-.045-.073.894.894,0,0,1,.043-.08l.6-1.08.668-1.192.044-.079c.032-.06.007-.1-.061-.1H665.9a.107.107,0,0,1-.118-.119v-.6a.105.105,0,0,1,.116-.118h2.048l.033,0a.048.048,0,0,1,.035.073c-.021.044-.046.086-.07.129l-.676,1.208-.6,1.065a.439.439,0,0,0-.024.045.058.058,0,0,0,.045.087.2.2,0,0,0,.037,0h1.16a.1.1,0,0,1,.117.116v.6a.1.1,0,0,1-.115.115Z" transform="translate(-661.579 -575.004)" fill="#69b244"/>
          <path id="Path_7897" data-name="Path 7897" d="M730.535,575.43h.339a.178.178,0,0,1,.175.11l.654,1.378,0,0c.012.022.023.045.052.046s.042-.023.053-.045l.2-.427.326-.687c.043-.091.086-.183.13-.274a.174.174,0,0,1,.168-.106h.71c.057,0,.08.037.057.091-.015.036-.033.07-.05.105l-.612,1.286-.771,1.622c-.055.116-.109.232-.165.347-.01.022-.019.048-.049.049s-.039-.027-.049-.048l-.418-.881-1-2.108-.173-.365a.072.072,0,0,1-.009-.063.061.061,0,0,1,.064-.035h.364Z" transform="translate(-722.505 -574.924)" fill="#69b244"/>
          <path id="Path_7898" data-name="Path 7898" d="M713.647,577.171v-1.61a.142.142,0,0,1,.006-.05.094.094,0,0,1,.091-.068h.64a.1.1,0,0,1,.1.1c0,.011,0,.022,0,.033v3.238a.1.1,0,0,1-.088.09h-.634a.1.1,0,0,1-.109-.079.179.179,0,0,1,0-.043Q713.647,577.977,713.647,577.171Z" transform="translate(-707.055 -574.937)" fill="#69b244"/>
          <path id="Path_7899" data-name="Path 7899" d="M664.963,567.565v-.349c0-.023.006-.03.03-.03h.447c.031,0,.031,0,.024.029l-.179.7a.029.029,0,0,1-.012.021.03.03,0,0,1-.023.005h-.258c-.023,0-.031-.006-.03-.03C664.964,567.8,664.963,567.682,664.963,567.565Z" transform="translate(-661.349 -567.185)" fill="#69b244"/>
          <path id="Path_7900" data-name="Path 7900" d="M842.556,567.55l.028-.088c.026-.086.053-.172.079-.258a.028.028,0,0,1,.034-.024c.02,0,.04,0,.06,0s.02.005.02.019v.427c0,.024-.017.019-.03.019s-.033.005-.032-.02v-.339a.263.263,0,0,0,0-.03H842.7l-.01.027c-.034.112-.069.222-.1.333-.006.02-.014.031-.037.03s-.037,0-.046-.031c-.035-.115-.072-.23-.108-.344,0-.008-.007-.016-.01-.024l-.008,0c0,.01,0,.019,0,.028v.335c0,.023-.005.033-.031.032s-.032-.006-.032-.031q0-.2,0-.407c0-.022.006-.029.029-.029.079,0,.079,0,.1.074l.086.272c0,.008.006.016.009.025Z" transform="translate(-827.857 -567.178)" fill="#69b244"/>
          <path id="Path_7901" data-name="Path 7901" d="M835.284,567.448v-.174c0-.021-.005-.029-.027-.028s-.069,0-.1,0-.023-.012-.021-.028-.007-.034.02-.034h.334c.026,0,.021.017.022.033s0,.03-.024.029-.067,0-.1,0-.029.007-.029.029v.346c0,.009-.005.027-.009.027a.237.237,0,0,1-.057,0s0-.013,0-.021Q835.284,567.538,835.284,567.448Z" transform="translate(-821.108 -567.184)" fill="#69b244"/>
        </g>
      </g>
    </g>
  </g>
</svg>
